<svg xmlns="http://www.w3.org/2000/svg" width="155.076" height="40" viewBox="16 78 155.076 40" fill="#DAE724"><path d="M35.6341 102.955L34.8723 102.857C34.8723 102.857 33.9349 96.8342 33.3686 95.4657C32.165 92.9253 27.4131 90.1853 27.4131 90.1853L27.8747 89.1329C27.8747 89.1329 18.6823 82.2724 17.7194 81.3919C17.0936 80.8181 16.0401 80.7813 16.0033 80.137C15.9523 79.2595 16.5017 78.4525 16.9293 78.3912C18.2745 78.1979 18.181 79.7903 18.8267 80.4622C19.3648 81.0206 26.286 83.963 29.4379 85.1903C31.0181 85.807 35.7077 87.7799 36.5658 87.6633C37.1491 87.5835 37.3474 87.3565 37.4153 87.1141C37.4946 86.8359 37.5173 86.3255 37.4833 85.583C36.7923 85.4818 35.7304 85.9113 35.1526 85.583C34.0142 84.9387 32.9834 83.3985 31.9753 83.4291C31.389 83.4476 30.7405 83.6746 30.2818 83.512C30.1345 83.4598 29.5398 83.3003 29.183 82.4872C28.846 81.7263 29.2085 80.5082 29.8711 80.0296C30.4035 79.643 31.3098 79.5693 31.7968 80.048C32.3859 80.6248 32.5643 81.1556 32.8985 81.444C34.085 82.4627 36.8065 82.1006 38.2451 81.9012C39.5846 81.714 39.4855 81.3029 39.4062 80.2505C39.2617 78.3789 42.3315 78.1027 43.5408 79.1429C44.1496 79.6675 45.1549 81.4594 43.9825 82.3768C42.8611 83.3279 44.6395 83.4445 45.7468 84.8344C47.024 86.436 47.1146 87.8566 46.704 90.1209C46.6728 90.2989 46.3047 92.238 45.7128 92.3085C45.5033 92.3331 44.144 92.3024 43.8976 92.327C42.1531 92.5141 41.4508 93.904 41.1081 94.49C40.1085 96.2113 39.6922 100.197 39.4685 102.728C39.4033 103.458 39.3552 104.066 39.3127 104.465C39.1173 106.29 38.9672 113.66 39.392 114.854C39.5336 115.25 39.8225 115.817 40.0009 116.403C40.5927 118.364 38.1346 117.557 37.3729 116.79C36.8943 116.308 36.7357 116.124 36.9084 114.854C37.0302 113.97 36.4836 107.705 35.6341 102.952"/><path d="M101.634 87.5759C100.879 87.5759 100.216 87.4288 99.6441 87.1347C99.0796 86.8326 98.6361 86.4152 98.3136 85.8825C97.9984 85.3498 97.8408 84.7337 97.8408 84.0341C97.8408 83.3265 97.9984 82.7103 98.3136 82.1856C98.6361 81.6529 99.0796 81.2395 99.6441 80.9454C100.216 80.6432 100.879 80.4922 101.634 80.4922C102.389 80.4922 103.049 80.6432 103.613 80.9454C104.185 81.2395 104.629 81.6529 104.944 82.1856C105.266 82.7103 105.428 83.3265 105.428 84.0341C105.428 84.7337 105.266 85.3498 104.944 85.8825C104.629 86.4152 104.185 86.8326 103.613 87.1347C103.049 87.4288 102.389 87.5759 101.634 87.5759ZM101.634 86.3595C102.118 86.3595 102.532 86.2641 102.877 86.0733C103.229 85.8825 103.5 85.6162 103.69 85.2743C103.881 84.9245 103.976 84.5111 103.976 84.0341C103.976 83.557 103.881 83.1476 103.69 82.8057C103.5 82.4559 103.229 82.1856 102.877 81.9948C102.532 81.804 102.118 81.7086 101.634 81.7086C101.158 81.7086 100.744 81.804 100.392 81.9948C100.04 82.1856 99.7687 82.4559 99.5781 82.8057C99.3875 83.1476 99.2922 83.557 99.2922 84.0341C99.2922 84.5111 99.3875 84.9245 99.5781 85.2743C99.7687 85.6162 100.04 85.8825 100.392 86.0733C100.744 86.2641 101.158 86.3595 101.634 86.3595Z"/><path d="M91.6045 81.852V81.1484L92.9349 80.7788L93.5287 78.8945H94.3643V80.6595H97.2561V81.852H94.3643V84.7738C94.3643 85.3383 94.4743 85.7358 94.6942 85.9663C94.9214 86.1889 95.2879 86.3002 95.7937 86.3002C96.1162 86.3002 96.4021 86.2645 96.6514 86.1929C96.9006 86.1134 97.1388 86.0021 97.3661 85.859V87.135C97.1755 87.2384 96.9042 87.3378 96.5524 87.4332C96.2079 87.5286 95.8524 87.5763 95.4858 87.5763C94.8774 87.5763 94.3863 87.4689 94.0125 87.2543C93.6386 87.0317 93.3637 86.7296 93.1878 86.3479C93.0192 85.9584 92.9349 85.5132 92.9349 85.0123V81.852H91.6045Z"/><path d="M85.2475 87.5759C84.5218 87.5759 83.8767 87.4288 83.3123 87.1347C82.7479 86.8326 82.3044 86.4152 81.9818 85.8825C81.6593 85.3498 81.498 84.7297 81.498 84.0221C81.498 83.3225 81.6483 82.7103 81.9489 82.1856C82.2567 81.6529 82.6782 81.2395 83.2133 80.9454C83.7558 80.6432 84.3752 80.4922 85.0715 80.4922C85.7679 80.4922 86.369 80.6631 86.8748 81.005C87.3879 81.3389 87.7837 81.8119 88.0623 82.4241C88.3408 83.0363 88.4801 83.7558 88.4801 84.5826H82.6196V83.402H87.7654L87.0507 83.8432C87.0287 83.398 86.9297 83.0164 86.7538 82.6984C86.5852 82.3804 86.3543 82.1379 86.0611 81.9709C85.7752 81.796 85.4344 81.7086 85.0385 81.7086C84.6207 81.7086 84.2542 81.8 83.939 81.9829C83.6311 82.1657 83.3892 82.4241 83.2133 82.758C83.0374 83.084 82.9494 83.4736 82.9494 83.9267C82.9494 84.4276 83.0521 84.8609 83.2573 85.2266C83.4699 85.5923 83.7668 85.8745 84.1479 86.0733C84.5364 86.2641 84.9946 86.3595 85.5223 86.3595C85.9988 86.3595 86.4863 86.28 86.9847 86.121C87.4832 85.9541 87.923 85.7235 88.3042 85.4293V86.5503C87.923 86.8683 87.4575 87.1188 86.9078 87.3016C86.3653 87.4845 85.8119 87.5759 85.2475 87.5759Z"/><path d="M68.8506 80.6591H70.28L70.6538 83.0919V87.409H69.2244V82.8654L68.8506 80.6591ZM72.9518 80.4922C73.5016 80.4922 73.9671 80.6194 74.3483 80.8738C74.7368 81.1282 75.03 81.4939 75.2279 81.9709C75.4331 82.44 75.5358 83.0085 75.5358 83.6763V87.409H74.1064V83.9267C74.1064 83.2191 73.9671 82.6865 73.6885 82.3287C73.4173 81.963 73.0178 81.7801 72.49 81.7801C72.1162 81.7801 71.79 81.8795 71.5115 82.0783C71.2402 82.2691 71.0277 82.5394 70.8737 82.8892C70.7271 83.239 70.6538 83.6485 70.6538 84.1175L70.148 83.8194C70.214 83.1198 70.3716 82.5235 70.6208 82.0306C70.8774 81.5377 71.2036 81.16 71.5994 80.8977C72.0026 80.6273 72.4534 80.4922 72.9518 80.4922ZM77.8228 80.4922C78.3726 80.4922 78.8417 80.6194 79.2302 80.8738C79.6187 81.1282 79.9119 81.4939 80.1098 81.9709C80.3151 82.44 80.4177 83.0085 80.4177 83.6763V87.409H78.9883V83.9267C78.9883 83.2191 78.849 82.6865 78.5705 82.3287C78.2993 81.963 77.8998 81.7801 77.372 81.7801C76.9981 81.7801 76.6719 81.8795 76.3934 82.0783C76.1222 82.2691 75.9096 82.5394 75.7557 82.8892C75.6091 83.239 75.5358 83.6485 75.5358 84.1175L75.03 83.8194C75.0959 83.1198 75.2535 82.5235 75.5028 82.0306C75.7593 81.5377 76.0855 81.16 76.4814 80.8977C76.8845 80.6273 77.3317 80.4922 77.8228 80.4922Z"/><path d="M66.2053 80.6117L66.92 80.7548L67.6347 80.6117V87.4092H66.2053V80.6117ZM66.92 79.765C66.6487 79.765 66.4252 79.6855 66.2492 79.5265C66.0733 79.3595 65.9854 79.1448 65.9854 78.8825C65.9854 78.6201 66.0733 78.4094 66.2492 78.2504C66.4252 78.0835 66.6487 78 66.92 78C67.1985 78 67.4221 78.0835 67.5907 78.2504C67.7666 78.4094 67.8546 78.6201 67.8546 78.8825C67.8546 79.1448 67.7666 79.3595 67.5907 79.5265C67.4221 79.6855 67.1985 79.765 66.92 79.765Z"/><path d="M60.4086 79.1923H61.8599V87.4089H60.4086V79.1923ZM57 78.4648H65.2685V79.8482H57V78.4648Z"/><path d="M151.313 92.7676H157.324V117.255H151.313V92.7676ZM163.452 98.5554C165.075 98.5554 166.443 98.9052 167.557 99.6048C168.691 100.304 169.561 101.29 170.167 102.562C170.773 103.834 171.076 105.34 171.076 107.078V117.255H165.065V108.032C165.065 106.675 164.742 105.636 164.097 104.916C163.472 104.195 162.563 103.834 161.371 103.834C160.55 103.834 159.826 104.025 159.201 104.407C158.595 104.788 158.126 105.329 157.793 106.029C157.481 106.728 157.324 107.555 157.324 108.509L155.448 107.46C155.682 105.53 156.181 103.909 156.943 102.594C157.705 101.259 158.644 100.251 159.758 99.573C160.892 98.8946 162.123 98.5554 163.452 98.5554Z"/><path d="M152.053 111.339C152.053 112.738 151.662 113.915 150.88 114.869C150.098 115.823 148.984 116.544 147.537 117.031C146.091 117.519 144.351 117.763 142.318 117.763C140.227 117.763 138.389 117.487 136.806 116.936C135.242 116.385 134.02 115.611 133.141 114.614C132.261 113.618 131.792 112.462 131.733 111.148H137.803C137.94 111.636 138.204 112.06 138.594 112.42C139.005 112.759 139.543 113.024 140.207 113.215C140.872 113.385 141.663 113.469 142.582 113.469C143.775 113.469 144.674 113.342 145.28 113.088C145.905 112.833 146.218 112.452 146.218 111.943C146.218 111.54 145.983 111.243 145.514 111.053C145.045 110.841 144.244 110.682 143.11 110.576L140.149 110.321C138.174 110.173 136.601 109.855 135.428 109.367C134.275 108.858 133.444 108.212 132.936 107.427C132.427 106.622 132.173 105.71 132.173 104.692C132.173 103.314 132.564 102.18 133.346 101.29C134.147 100.378 135.252 99.6995 136.659 99.2543C138.086 98.7879 139.748 98.5547 141.644 98.5547C143.52 98.5547 145.192 98.8197 146.658 99.3497C148.124 99.8797 149.297 100.622 150.176 101.576C151.056 102.509 151.564 103.611 151.701 104.883H145.632C145.534 104.48 145.319 104.12 144.986 103.802C144.654 103.463 144.195 103.187 143.608 102.975C143.022 102.763 142.269 102.657 141.351 102.657C140.276 102.657 139.455 102.784 138.888 103.039C138.34 103.293 138.067 103.653 138.067 104.12C138.067 104.48 138.233 104.767 138.565 104.979C138.917 105.191 139.562 105.339 140.5 105.424L144.4 105.742C146.335 105.869 147.86 106.176 148.974 106.664C150.088 107.13 150.88 107.756 151.349 108.54C151.818 109.325 152.053 110.258 152.053 111.339Z"/><path d="M126.867 117.254L126.105 110.703L126.896 108.19L126.105 105.678L126.867 99.0953H133.083L132.027 108.159L133.083 117.254H126.867ZM128.274 108.19C128.001 110.099 127.453 111.773 126.632 113.215C125.831 114.657 124.805 115.78 123.554 116.586C122.322 117.37 120.915 117.763 119.332 117.763C117.69 117.763 116.243 117.37 114.992 116.586C113.761 115.78 112.793 114.657 112.089 113.215C111.386 111.752 111.034 110.077 111.034 108.19C111.034 106.261 111.386 104.576 112.089 103.134C112.793 101.692 113.761 100.569 114.992 99.7631C116.243 98.9575 117.69 98.5547 119.332 98.5547C120.915 98.5547 122.322 98.9575 123.554 99.7631C124.805 100.548 125.841 101.661 126.662 103.102C127.483 104.523 128.02 106.219 128.274 108.19ZM117.103 108.19C117.103 109.081 117.269 109.876 117.602 110.576C117.953 111.275 118.432 111.826 119.038 112.229C119.644 112.611 120.338 112.802 121.12 112.802C121.941 112.802 122.713 112.611 123.436 112.229C124.16 111.826 124.795 111.275 125.342 110.576C125.89 109.876 126.3 109.081 126.574 108.19C126.3 107.279 125.89 106.473 125.342 105.774C124.795 105.074 124.16 104.523 123.436 104.12C122.713 103.717 121.941 103.516 121.12 103.516C120.338 103.516 119.644 103.717 119.038 104.12C118.432 104.523 117.953 105.074 117.602 105.774C117.269 106.473 117.103 107.279 117.103 108.19Z"/><path d="M78.3296 99.0953H84.3404L85.4253 106.346V117.254H79.4438V105.36L78.3296 99.0953ZM91.2015 98.5547C92.7457 98.5547 94.0554 98.9045 95.1305 99.6041C96.2056 100.304 97.0266 101.29 97.5934 102.562C98.1603 103.834 98.4437 105.339 98.4437 107.077V117.254H92.4623V108.031C92.4623 106.675 92.1788 105.636 91.612 104.915C91.0451 104.194 90.2241 103.834 89.149 103.834C88.3867 103.834 87.7221 104.024 87.1552 104.406C86.6079 104.788 86.1778 105.328 85.8651 106.028C85.5719 106.728 85.4253 107.554 85.4253 108.508L83.578 107.459C83.8126 105.53 84.2915 103.908 85.0148 102.593C85.738 101.258 86.6274 100.251 87.683 99.5723C88.7581 98.8939 89.9309 98.5547 91.2015 98.5547ZM104.191 98.5547C105.735 98.5547 107.045 98.9045 108.12 99.6041C109.214 100.304 110.045 101.29 110.612 102.562C111.179 103.834 111.462 105.339 111.462 107.077V117.254H105.481V108.031C105.481 106.675 105.197 105.636 104.63 104.915C104.064 104.194 103.243 103.834 102.167 103.834C101.405 103.834 100.741 104.024 100.174 104.406C99.6264 104.788 99.1963 105.328 98.8836 106.028C98.5903 106.728 98.4437 107.554 98.4437 108.508L96.5965 107.459C96.8311 105.53 97.3002 103.908 98.0039 102.593C98.7272 101.258 99.6264 100.251 100.701 99.5723C101.777 98.8939 102.94 98.5547 104.191 98.5547Z"/><path d="M57 109.431H63.1867C63.2845 110.088 63.5679 110.661 64.037 111.148C64.5062 111.636 65.1317 112.018 65.9136 112.293C66.715 112.548 67.6533 112.675 68.7284 112.675C70.214 112.675 71.3868 112.473 72.2469 112.071C73.107 111.647 73.537 111.032 73.537 110.226C73.537 109.611 73.2927 109.134 72.804 108.795C72.3153 108.456 71.377 108.212 69.9892 108.064L65.8842 107.65C62.8544 107.353 60.6553 106.611 59.287 105.424C57.9187 104.216 57.2346 102.594 57.2346 100.559C57.2346 98.905 57.6744 97.5057 58.554 96.3609C59.4532 95.216 60.7042 94.3574 62.3071 93.785C63.9295 93.1913 65.8158 92.8945 67.966 92.8945C70.0771 92.8945 71.9537 93.2231 73.5956 93.8804C75.2376 94.5164 76.5375 95.428 77.4953 96.6153C78.4727 97.8025 79.0005 99.1806 79.0787 100.749H72.9213C72.8431 100.177 72.589 99.6894 72.1589 99.2866C71.7484 98.8626 71.1816 98.5446 70.4583 98.3325C69.7351 98.0993 68.8652 97.9827 67.8487 97.9827C66.4804 97.9827 65.3956 98.1841 64.5941 98.587C63.7927 98.9686 63.392 99.541 63.392 100.304C63.392 100.855 63.6265 101.301 64.0957 101.64C64.5843 101.979 65.4542 102.212 66.7052 102.34L71.074 102.817C73.1656 103.029 74.8369 103.4 76.0879 103.93C77.3389 104.438 78.2479 105.149 78.8148 106.06C79.3816 106.972 79.6651 108.106 79.6651 109.463C79.6651 111.138 79.2057 112.601 78.287 113.852C77.3683 115.081 76.0781 116.046 74.4166 116.745C72.7551 117.424 70.8199 117.763 68.6111 117.763C66.3436 117.763 64.34 117.424 62.6003 116.745C60.8801 116.046 59.5314 115.071 58.554 113.82C57.5766 112.548 57.0586 111.085 57 109.431Z"/></svg>
